<mxfile host="Electron" modified="2024-04-30T17:32:29.635Z" agent="Mozilla/5.0 (Windows NT 10.0; Win64; x64) AppleWebKit/537.36 (KHTML, like Gecko) draw.io/24.2.5 Chrome/120.0.6099.109 Electron/28.1.0 Safari/537.36" etag="rmOkQnMw0OLm9EfWDIs-" version="24.2.5" type="device">
  <diagram name="Page-1" id="rxdMIFF4QSZ6s4MxIWWF">
    <mxGraphModel dx="6608" dy="5108" grid="0" gridSize="10" guides="1" tooltips="1" connect="1" arrows="1" fold="1" page="1" pageScale="1" pageWidth="600" pageHeight="800" math="0" shadow="0">
      <root>
        <mxCell id="0" />
        <mxCell id="1" parent="0" />
        <mxCell id="vb8EqII04e8IpAxQcezI-34" style="edgeStyle=orthogonalEdgeStyle;rounded=0;orthogonalLoop=1;jettySize=auto;html=1;entryX=0.25;entryY=0;entryDx=0;entryDy=0;" edge="1" parent="1" source="vb8EqII04e8IpAxQcezI-4" target="vb8EqII04e8IpAxQcezI-10">
          <mxGeometry relative="1" as="geometry" />
        </mxCell>
        <mxCell id="vb8EqII04e8IpAxQcezI-4" value="&lt;font style=&quot;font-size: 22px;&quot;&gt;Date Dimension&lt;/font&gt;" style="swimlane;whiteSpace=wrap;html=1;fillColor=#dae8fc;strokeColor=#6c8ebf;swimlaneFillColor=default;" vertex="1" parent="1">
          <mxGeometry x="-304" y="-2329" width="280" height="580" as="geometry" />
        </mxCell>
        <mxCell id="vb8EqII04e8IpAxQcezI-5" value="&lt;div style=&quot;text-align: center; font-size: 18px;&quot;&gt;&lt;span style=&quot;background-color: initial;&quot;&gt;&lt;font face=&quot;Tahoma&quot; style=&quot;font-size: 18px;&quot;&gt;Date Key (PK)&lt;/font&gt;&lt;/span&gt;&lt;/div&gt;&lt;font face=&quot;E_Vse2sqt-GHe94hN0gW&quot; style=&quot;font-size: 18px;&quot;&gt;&lt;span style=&quot;background-color: initial;&quot;&gt;&lt;div style=&quot;text-align: center;&quot;&gt;&lt;span style=&quot;background-color: initial;&quot;&gt;Date&lt;/span&gt;&lt;/div&gt;&lt;/span&gt;&lt;span style=&quot;background-color: initial;&quot;&gt;&lt;div style=&quot;text-align: center;&quot;&gt;&lt;span style=&quot;background-color: initial;&quot;&gt;Day of the Week&lt;/span&gt;&lt;/div&gt;&lt;/span&gt;&lt;span style=&quot;background-color: initial;&quot;&gt;&lt;div style=&quot;text-align: center;&quot;&gt;&lt;span style=&quot;background-color: initial;&quot;&gt;Day of the Month&lt;/span&gt;&lt;/div&gt;&lt;/span&gt;&lt;span style=&quot;background-color: initial;&quot;&gt;&lt;div style=&quot;text-align: center;&quot;&gt;&lt;span style=&quot;background-color: initial;&quot;&gt;Day of the Year&lt;/span&gt;&lt;/div&gt;&lt;/span&gt;&lt;span style=&quot;background-color: initial;&quot;&gt;&lt;div style=&quot;text-align: center;&quot;&gt;&lt;span style=&quot;background-color: initial;&quot;&gt;Week Number&lt;/span&gt;&lt;/div&gt;&lt;/span&gt;&lt;span style=&quot;background-color: initial;&quot;&gt;&lt;div style=&quot;text-align: center;&quot;&gt;&lt;span style=&quot;background-color: initial;&quot;&gt;Month&lt;/span&gt;&lt;/div&gt;&lt;/span&gt;&lt;span style=&quot;background-color: initial;&quot;&gt;&lt;div style=&quot;text-align: center;&quot;&gt;&lt;span style=&quot;background-color: initial;&quot;&gt;Quarter&lt;/span&gt;&lt;/div&gt;&lt;/span&gt;&lt;span style=&quot;background-color: initial;&quot;&gt;&lt;div style=&quot;text-align: center;&quot;&gt;&lt;span style=&quot;background-color: initial;&quot;&gt;Year&lt;/span&gt;&lt;/div&gt;&lt;/span&gt;&lt;span style=&quot;background-color: initial;&quot;&gt;&lt;div style=&quot;text-align: center;&quot;&gt;&lt;span style=&quot;background-color: initial;&quot;&gt;Holiday Indicator&lt;/span&gt;&lt;/div&gt;&lt;/span&gt;&lt;span style=&quot;background-color: initial;&quot;&gt;&lt;div style=&quot;text-align: center;&quot;&gt;&lt;span style=&quot;background-color: initial;&quot;&gt;Weekday/Weekend Indicator&lt;/span&gt;&lt;/div&gt;&lt;/span&gt;&lt;span style=&quot;background-color: initial;&quot;&gt;&lt;div style=&quot;text-align: center;&quot;&gt;&lt;span style=&quot;background-color: initial;&quot;&gt;Season&lt;/span&gt;&lt;/div&gt;&lt;/span&gt;&lt;span style=&quot;background-color: initial;&quot;&gt;&lt;div style=&quot;text-align: center;&quot;&gt;&lt;span style=&quot;background-color: initial;&quot;&gt;Fiscal Period&lt;/span&gt;&lt;/div&gt;&lt;/span&gt;&lt;span style=&quot;background-color: initial;&quot;&gt;&lt;div style=&quot;text-align: center;&quot;&gt;&lt;span style=&quot;background-color: initial;&quot;&gt;Fiscal Year&lt;/span&gt;&lt;/div&gt;&lt;/span&gt;&lt;span style=&quot;background-color: initial;&quot;&gt;&lt;div style=&quot;text-align: center;&quot;&gt;&lt;span style=&quot;background-color: initial;&quot;&gt;Financial Period&lt;/span&gt;&lt;/div&gt;&lt;/span&gt;&lt;span style=&quot;background-color: initial;&quot;&gt;&lt;div style=&quot;text-align: center;&quot;&gt;&lt;span style=&quot;background-color: initial;&quot;&gt;Financial Year&lt;/span&gt;&lt;/div&gt;&lt;/span&gt;&lt;span style=&quot;background-color: initial;&quot;&gt;&lt;div style=&quot;text-align: center;&quot;&gt;&lt;span style=&quot;background-color: initial;&quot;&gt;Quarter Start/End Dates&lt;/span&gt;&lt;/div&gt;&lt;/span&gt;&lt;span style=&quot;background-color: initial;&quot;&gt;&lt;div style=&quot;text-align: center;&quot;&gt;&lt;span style=&quot;background-color: initial;&quot;&gt;Month Start/End Dates&lt;/span&gt;&lt;/div&gt;&lt;/span&gt;&lt;span style=&quot;background-color: initial;&quot;&gt;&lt;div style=&quot;text-align: center;&quot;&gt;&lt;span style=&quot;background-color: initial;&quot;&gt;Week Start/End Dates&lt;/span&gt;&lt;/div&gt;&lt;/span&gt;&lt;span style=&quot;background-color: initial;&quot;&gt;&lt;div style=&quot;text-align: center;&quot;&gt;&lt;span style=&quot;background-color: initial;&quot;&gt;Day Type&lt;/span&gt;&lt;/div&gt;&lt;/span&gt;&lt;span style=&quot;background-color: initial;&quot;&gt;&lt;div style=&quot;text-align: center;&quot;&gt;&lt;span style=&quot;background-color: initial;&quot;&gt;Leap Year Indicator&lt;/span&gt;&lt;/div&gt;&lt;/span&gt;&lt;/font&gt;" style="text;html=1;strokeColor=none;fillColor=none;align=left;verticalAlign=middle;whiteSpace=wrap;rounded=0;" vertex="1" parent="vb8EqII04e8IpAxQcezI-4">
          <mxGeometry x="30" y="120" width="215" height="360" as="geometry" />
        </mxCell>
        <mxCell id="vb8EqII04e8IpAxQcezI-33" style="edgeStyle=orthogonalEdgeStyle;rounded=0;orthogonalLoop=1;jettySize=auto;html=1;entryX=0.75;entryY=1;entryDx=0;entryDy=0;" edge="1" parent="1" source="vb8EqII04e8IpAxQcezI-6" target="vb8EqII04e8IpAxQcezI-10">
          <mxGeometry relative="1" as="geometry" />
        </mxCell>
        <mxCell id="vb8EqII04e8IpAxQcezI-6" value="&lt;font style=&quot;font-size: 20px;&quot;&gt;Aircraft Dimension&amp;nbsp;&lt;/font&gt;" style="swimlane;whiteSpace=wrap;html=1;startSize=23;fontSize=14;swimlaneFillColor=default;fillColor=#dae8fc;strokeColor=#6c8ebf;" vertex="1" parent="1">
          <mxGeometry x="-1" y="-662" width="267" height="260" as="geometry" />
        </mxCell>
        <mxCell id="vb8EqII04e8IpAxQcezI-7" value="&lt;div style=&quot;font-size: 18px;&quot;&gt;&lt;div style=&quot;&quot;&gt;&lt;div style=&quot;&quot;&gt;Aircraft Key (SK)&lt;/div&gt;&lt;div style=&quot;&quot;&gt;Aircraft Id&lt;/div&gt;&lt;div style=&quot;&quot;&gt;Aircraft Type&lt;/div&gt;&lt;div style=&quot;&quot;&gt;Manufacturer&lt;/div&gt;&lt;div style=&quot;&quot;&gt;Model&lt;/div&gt;&lt;div style=&quot;&quot;&gt;Capacity&lt;/div&gt;&lt;div style=&quot;&quot;&gt;Year of Manufacture&lt;/div&gt;&lt;div style=&quot;&quot;&gt;Carrying Weight&lt;/div&gt;&lt;div style=&quot;&quot;&gt;Fuel Consumption&lt;/div&gt;&lt;div style=&quot;&quot;&gt;&lt;br style=&quot;&quot;&gt;&lt;/div&gt;&lt;/div&gt;&lt;/div&gt;" style="text;html=1;align=center;verticalAlign=middle;resizable=0;points=[];autosize=1;fontSize=14;" vertex="1" parent="vb8EqII04e8IpAxQcezI-6">
          <mxGeometry x="43.5" y="38" width="180" height="230" as="geometry" />
        </mxCell>
        <mxCell id="vb8EqII04e8IpAxQcezI-30" style="edgeStyle=orthogonalEdgeStyle;rounded=0;orthogonalLoop=1;jettySize=auto;html=1;entryX=0;entryY=0.5;entryDx=0;entryDy=0;" edge="1" parent="1" source="vb8EqII04e8IpAxQcezI-8" target="vb8EqII04e8IpAxQcezI-10">
          <mxGeometry relative="1" as="geometry" />
        </mxCell>
        <mxCell id="vb8EqII04e8IpAxQcezI-8" value="&lt;font face=&quot;Tahoma&quot; style=&quot;font-size: 18px;&quot;&gt;City-pair Route Dimension&lt;/font&gt;" style="swimlane;whiteSpace=wrap;html=1;fontSize=14;fillColor=#dae8fc;strokeColor=#6c8ebf;swimlaneFillColor=default;" vertex="1" parent="1">
          <mxGeometry x="-476" y="-1136" width="280" height="230" as="geometry" />
        </mxCell>
        <mxCell id="vb8EqII04e8IpAxQcezI-9" value="&lt;div style=&quot;font-size: 18px;&quot;&gt;&lt;font face=&quot;Tahoma&quot; style=&quot;font-size: 18px;&quot;&gt;City-Pair Route Key (SK)&lt;/font&gt;&lt;/div&gt;&lt;div style=&quot;font-size: 18px;&quot;&gt;&lt;font face=&quot;LK2kZPiWcbJKduJd0ah_&quot; style=&quot;font-size: 18px;&quot;&gt;Directional Route Name&lt;/font&gt;&lt;/div&gt;&lt;div style=&quot;font-size: 18px;&quot;&gt;&lt;font face=&quot;LK2kZPiWcbJKduJd0ah_&quot; style=&quot;font-size: 18px;&quot;&gt;Non-Directional Route Name&lt;/font&gt;&lt;/div&gt;&lt;div style=&quot;font-size: 18px;&quot;&gt;&lt;font face=&quot;LK2kZPiWcbJKduJd0ah_&quot; style=&quot;font-size: 18px;&quot;&gt;Route Distance in Miles&amp;nbsp;&lt;/font&gt;&lt;/div&gt;&lt;div style=&quot;font-size: 18px;&quot;&gt;&lt;font face=&quot;LK2kZPiWcbJKduJd0ah_&quot; style=&quot;font-size: 18px;&quot;&gt;Route Distance Band&amp;nbsp;&lt;/font&gt;&lt;/div&gt;&lt;div style=&quot;font-size: 18px;&quot;&gt;&lt;font face=&quot;LK2kZPiWcbJKduJd0ah_&quot; style=&quot;font-size: 18px;&quot;&gt;Dom-Intl Indicator&amp;nbsp;&lt;/font&gt;&lt;/div&gt;&lt;div style=&quot;font-size: 18px;&quot;&gt;&lt;font face=&quot;LK2kZPiWcbJKduJd0ah_&quot; style=&quot;font-size: 18px;&quot;&gt;Transocean Indicator&lt;/font&gt;&lt;/div&gt;" style="text;html=1;strokeColor=none;fillColor=none;align=center;verticalAlign=middle;whiteSpace=wrap;rounded=0;fontSize=14;" vertex="1" parent="vb8EqII04e8IpAxQcezI-8">
          <mxGeometry y="55" width="291" height="120" as="geometry" />
        </mxCell>
        <mxCell id="vb8EqII04e8IpAxQcezI-10" value="&lt;font face=&quot;Tahoma&quot; style=&quot;font-size: 20px;&quot;&gt;Reservations Fact&lt;/font&gt;" style="swimlane;whiteSpace=wrap;html=1;fontSize=14;fillColor=#ffe6cc;strokeColor=#d79b00;gradientColor=none;swimlaneFillColor=default;" vertex="1" parent="1">
          <mxGeometry x="240" y="-1680" width="506" height="761" as="geometry" />
        </mxCell>
        <mxCell id="vb8EqII04e8IpAxQcezI-11" value="&lt;div style=&quot;font-size: 22px;&quot;&gt;&lt;font face=&quot;Tahoma&quot; style=&quot;font-size: 22px;&quot;&gt;&lt;b style=&quot;&quot;&gt;Scheduled Departure Date Key (FK)&lt;br style=&quot;&quot;&gt; Scheduled Departure&amp;nbsp;&lt;span style=&quot;background-color: initial;&quot;&gt;Time Key (FK)&lt;/span&gt;&lt;/b&gt;&lt;/font&gt;&lt;/div&gt;&lt;div style=&quot;font-size: 22px;&quot;&gt;&lt;font face=&quot;ymGJ0lULA3i7FsWC63jf&quot; style=&quot;font-size: 22px;&quot;&gt;&lt;b&gt;Passenger Key (FK)&lt;br style=&quot;&quot;&gt; Passenger Profile Key (FK)&lt;br style=&quot;&quot;&gt;Origin Airport Key (FK)&lt;br style=&quot;&quot;&gt;Destination&amp;nbsp;&lt;span style=&quot;background-color: initial;&quot;&gt;Airport Key (FK)&lt;/span&gt;&lt;/b&gt;&lt;/font&gt;&lt;/div&gt;&lt;div style=&quot;font-size: 22px;&quot;&gt;&lt;font face=&quot;ymGJ0lULA3i7FsWC63jf&quot; style=&quot;font-size: 22px;&quot;&gt;&lt;b&gt; Aircraft Key (FK)&lt;br style=&quot;&quot;&gt; Class of Service Key (FK)&lt;br style=&quot;&quot;&gt; Fare Basis Key (FK)&lt;/b&gt;&lt;/font&gt;&lt;/div&gt;&lt;div style=&quot;font-size: 22px;&quot;&gt;&lt;font face=&quot;ymGJ0lULA3i7FsWC63jf&quot; style=&quot;font-size: 22px;&quot;&gt;&lt;b&gt;City-Pair Route Key (FK)&lt;br style=&quot;&quot;&gt; Booking Channel Key (FK)&lt;/b&gt;&lt;/font&gt;&lt;/div&gt;&lt;div style=&quot;font-size: 22px;&quot;&gt;&lt;font face=&quot;ymGJ0lULA3i7FsWC63jf&quot; style=&quot;font-size: 22px;&quot;&gt;&lt;b&gt;Confirmation Number (DD)&lt;br style=&quot;&quot;&gt; Segment Sequence Number (DD)&lt;br style=&quot;&quot;&gt; Flight Number (DD)&amp;nbsp;&lt;/b&gt;&lt;/font&gt;&lt;/div&gt;&lt;div style=&quot;font-size: 22px;&quot;&gt;&lt;font face=&quot;ymGJ0lULA3i7FsWC63jf&quot; style=&quot;font-size: 22px;&quot;&gt;&lt;b&gt;&lt;br&gt;&lt;/b&gt;&lt;/font&gt;&lt;/div&gt;&lt;div style=&quot;font-size: 22px;&quot;&gt;&lt;font face=&quot;ymGJ0lULA3i7FsWC63jf&quot; style=&quot;font-size: 22px;&quot;&gt;&lt;b&gt;Base Fare Revenue&lt;br style=&quot;&quot;&gt; Passenger Facility Charges&amp;nbsp;&lt;/b&gt;&lt;/font&gt;&lt;/div&gt;&lt;div style=&quot;font-size: 22px;&quot;&gt;&lt;font face=&quot;ymGJ0lULA3i7FsWC63jf&quot; style=&quot;font-size: 22px;&quot;&gt;&lt;b&gt;Airport Tax&lt;br style=&quot;&quot;&gt; Government Tax&lt;br style=&quot;&quot;&gt;&lt;/b&gt;&lt;/font&gt;&lt;/div&gt;&lt;div style=&quot;font-size: 22px;&quot;&gt;&lt;span style=&quot;background-color: initial;&quot;&gt;&lt;font face=&quot;ymGJ0lULA3i7FsWC63jf&quot; style=&quot;font-size: 22px;&quot;&gt;&lt;b style=&quot;&quot;&gt;Transaction Fees&lt;/b&gt;&lt;/font&gt;&lt;/span&gt;&lt;/div&gt;" style="text;html=1;align=center;verticalAlign=middle;resizable=0;points=[];autosize=1;strokeColor=none;fillColor=none;fontSize=14;" vertex="1" parent="vb8EqII04e8IpAxQcezI-10">
          <mxGeometry x="46.5" y="93" width="413" height="542" as="geometry" />
        </mxCell>
        <mxCell id="vb8EqII04e8IpAxQcezI-12" value="" style="line;strokeWidth=1;html=1;" vertex="1" parent="vb8EqII04e8IpAxQcezI-10">
          <mxGeometry x="60" y="484" width="365" height="10" as="geometry" />
        </mxCell>
        <mxCell id="vb8EqII04e8IpAxQcezI-27" style="edgeStyle=orthogonalEdgeStyle;rounded=0;orthogonalLoop=1;jettySize=auto;html=1;entryX=1;entryY=0.25;entryDx=0;entryDy=0;" edge="1" parent="1" source="vb8EqII04e8IpAxQcezI-13" target="vb8EqII04e8IpAxQcezI-10">
          <mxGeometry relative="1" as="geometry" />
        </mxCell>
        <mxCell id="vb8EqII04e8IpAxQcezI-13" value="&lt;font face=&quot;Tahoma&quot; style=&quot;font-size: 18px;&quot;&gt;&lt;font style=&quot;font-size: 18px;&quot;&gt; Class of Service&amp;nbsp;&lt;/font&gt;&lt;font style=&quot;font-size: 18px;&quot;&gt;Dimension&amp;nbsp;&lt;/font&gt;&lt;/font&gt;" style="swimlane;whiteSpace=wrap;html=1;fontSize=14;fillColor=#dae8fc;strokeColor=#6c8ebf;swimlaneFillColor=default;" vertex="1" parent="1">
          <mxGeometry x="1274" y="-1450" width="280" height="100" as="geometry" />
        </mxCell>
        <mxCell id="vb8EqII04e8IpAxQcezI-14" value="&lt;div style=&quot;text-align: left; font-size: 18px;&quot;&gt;&lt;font face=&quot;Tahoma&quot; style=&quot;font-size: 18px;&quot;&gt;Class of Service Key (SK)&lt;br style=&quot;&quot;&gt;&lt;/font&gt;&lt;/div&gt;&lt;div style=&quot;text-align: left; font-size: 18px;&quot;&gt;&lt;font face=&quot;nuzYPl4-xW28gegS3qoj&quot; style=&quot;font-size: 18px;&quot;&gt;Class Purchased&lt;/font&gt;&lt;/div&gt;" style="text;html=1;align=center;verticalAlign=middle;resizable=0;points=[];autosize=1;strokeColor=none;fillColor=none;fontSize=14;" vertex="1" parent="vb8EqII04e8IpAxQcezI-13">
          <mxGeometry x="25" y="30" width="220" height="60" as="geometry" />
        </mxCell>
        <mxCell id="vb8EqII04e8IpAxQcezI-15" value="&lt;font style=&quot;font-size: 18px;&quot;&gt;Booking Channel Dimension&lt;/font&gt;" style="swimlane;whiteSpace=wrap;html=1;fontSize=14;fillColor=#dae8fc;strokeColor=#6c8ebf;swimlaneFillColor=default;" vertex="1" parent="1">
          <mxGeometry x="-450" y="-1550" width="280" height="170" as="geometry" />
        </mxCell>
        <mxCell id="vb8EqII04e8IpAxQcezI-16" value="&lt;font face=&quot;Tahoma&quot; style=&quot;font-size: 18px;&quot;&gt;Booking Channel Key (SK)&lt;br style=&quot;&quot;&gt;Booking Channel ID&lt;br style=&quot;&quot;&gt;Booking Channel Name&lt;br style=&quot;&quot;&gt;Booking Channel Type&lt;br style=&quot;&quot;&gt;Online/Offline Indicator&lt;/font&gt;" style="text;html=1;strokeColor=none;fillColor=none;align=center;verticalAlign=middle;whiteSpace=wrap;rounded=0;fontSize=14;" vertex="1" parent="vb8EqII04e8IpAxQcezI-15">
          <mxGeometry x="35" y="45" width="232" height="95" as="geometry" />
        </mxCell>
        <mxCell id="vb8EqII04e8IpAxQcezI-28" style="edgeStyle=orthogonalEdgeStyle;rounded=0;orthogonalLoop=1;jettySize=auto;html=1;entryX=0.75;entryY=0;entryDx=0;entryDy=0;" edge="1" parent="1" source="vb8EqII04e8IpAxQcezI-17" target="vb8EqII04e8IpAxQcezI-10">
          <mxGeometry relative="1" as="geometry" />
        </mxCell>
        <mxCell id="vb8EqII04e8IpAxQcezI-17" value="&lt;font face=&quot;Tahoma&quot; style=&quot;font-size: 20px;&quot;&gt;Fare Basis Dimension&lt;/font&gt;" style="swimlane;whiteSpace=wrap;html=1;fontSize=14;fillColor=#dae8fc;strokeColor=#6c8ebf;swimlaneFillColor=default;" vertex="1" parent="1">
          <mxGeometry x="1274" y="-2074" width="300" height="325" as="geometry" />
        </mxCell>
        <mxCell id="vb8EqII04e8IpAxQcezI-18" value="&lt;div style=&quot;font-size: 18px;&quot;&gt;&lt;font style=&quot;font-size: 18px;&quot; face=&quot;Tahoma&quot;&gt;Fare Basis Key (SK)&lt;/font&gt;&lt;/div&gt;&lt;div style=&quot;font-size: 18px;&quot;&gt;&lt;font style=&quot;font-size: 18px;&quot; face=&quot;P6Zr7QdQVIc0ELt-C0l3&quot;&gt;Fare Basis Code&lt;/font&gt;&lt;/div&gt;&lt;div style=&quot;font-size: 18px;&quot;&gt;&lt;font style=&quot;font-size: 18px;&quot; face=&quot;P6Zr7QdQVIc0ELt-C0l3&quot;&gt;Fare Type&lt;/font&gt;&lt;/div&gt;&lt;div style=&quot;font-size: 18px;&quot;&gt;&lt;font style=&quot;font-size: 18px;&quot; face=&quot;P6Zr7QdQVIc0ELt-C0l3&quot;&gt;Description&lt;/font&gt;&lt;/div&gt;&lt;div style=&quot;font-size: 18px;&quot;&gt;&lt;font style=&quot;font-size: 18px;&quot; face=&quot;P6Zr7QdQVIc0ELt-C0l3&quot;&gt;Advance Purchase Days Requirement&lt;/font&gt;&lt;/div&gt;&lt;div style=&quot;font-size: 18px;&quot;&gt;&lt;font style=&quot;font-size: 18px;&quot; face=&quot;P6Zr7QdQVIc0ELt-C0l3&quot;&gt;Cancellation Penalty&lt;/font&gt;&lt;/div&gt;&lt;div style=&quot;font-size: 18px;&quot;&gt;&lt;font style=&quot;font-size: 18px;&quot; face=&quot;P6Zr7QdQVIc0ELt-C0l3&quot;&gt;Discount Percentage&lt;/font&gt;&lt;/div&gt;&lt;div style=&quot;font-size: 18px;&quot;&gt;&lt;font style=&quot;font-size: 18px;&quot; face=&quot;P6Zr7QdQVIc0ELt-C0l3&quot;&gt;Effective Start Date&lt;/font&gt;&lt;/div&gt;&lt;div style=&quot;font-size: 18px;&quot;&gt;&lt;font style=&quot;font-size: 18px;&quot; face=&quot;P6Zr7QdQVIc0ELt-C0l3&quot;&gt;Effective End Date&lt;/font&gt;&lt;/div&gt;&lt;div style=&quot;font-size: 18px;&quot;&gt;&lt;font style=&quot;font-size: 18px;&quot; face=&quot;P6Zr7QdQVIc0ELt-C0l3&quot;&gt;Applicable Travel Class&lt;/font&gt;&lt;/div&gt;" style="text;html=1;strokeColor=none;fillColor=none;align=center;verticalAlign=middle;whiteSpace=wrap;rounded=0;fontSize=14;" vertex="1" parent="vb8EqII04e8IpAxQcezI-17">
          <mxGeometry x="15" y="25" width="290" height="275" as="geometry" />
        </mxCell>
        <mxCell id="vb8EqII04e8IpAxQcezI-21" style="edgeStyle=orthogonalEdgeStyle;rounded=0;orthogonalLoop=1;jettySize=auto;html=1;" edge="1" parent="1" source="vb8EqII04e8IpAxQcezI-15">
          <mxGeometry relative="1" as="geometry">
            <mxPoint x="240" y="-1630" as="targetPoint" />
            <Array as="points">
              <mxPoint x="180" y="-1465" />
              <mxPoint x="180" y="-1630" />
            </Array>
          </mxGeometry>
        </mxCell>
        <mxCell id="vb8EqII04e8IpAxQcezI-26" style="edgeStyle=orthogonalEdgeStyle;rounded=0;orthogonalLoop=1;jettySize=auto;html=1;entryX=1;entryY=0.5;entryDx=0;entryDy=0;" edge="1" parent="1" source="vb8EqII04e8IpAxQcezI-24" target="vb8EqII04e8IpAxQcezI-10">
          <mxGeometry relative="1" as="geometry" />
        </mxCell>
        <mxCell id="vb8EqII04e8IpAxQcezI-24" value="&lt;font style=&quot;font-size: 20px;&quot;&gt;&lt;font style=&quot;font-size: 20px;&quot;&gt;Time&amp;nbsp;&lt;/font&gt;&lt;font style=&quot;font-size: 20px;&quot;&gt;Dimension&amp;nbsp;&lt;/font&gt;&lt;/font&gt;" style="swimlane;whiteSpace=wrap;html=1;fillColor=#dae8fc;strokeColor=#6c8ebf;swimlaneFillColor=default;" vertex="1" parent="1">
          <mxGeometry x="1300" y="-1062" width="280" height="270" as="geometry" />
        </mxCell>
        <mxCell id="vb8EqII04e8IpAxQcezI-25" value="&lt;div style=&quot;text-align: left; font-size: 20px;&quot;&gt;&lt;font style=&quot;font-size: 20px;&quot;&gt;&lt;font style=&quot;font-size: 20px;&quot; face=&quot;Tahoma&quot;&gt;&lt;br&gt;&lt;span style=&quot;background-color: initial;&quot;&gt;Time (PK)&lt;/span&gt;&lt;br&gt;&lt;span style=&quot;background-color: initial;&quot;&gt;Time Id&lt;/span&gt;&lt;br&gt;&lt;span style=&quot;background-color: initial;&quot;&gt;Hour&lt;/span&gt;&lt;br&gt;&lt;span style=&quot;background-color: initial;&quot;&gt;Minute&lt;/span&gt;&lt;br&gt;&lt;span style=&quot;background-color: initial;&quot;&gt;DaytimeName&lt;/span&gt;&lt;br&gt;&lt;span style=&quot;background-color: initial;&quot;&gt;Shifts&lt;/span&gt;&lt;br&gt;&lt;span style=&quot;background-color: initial;&quot;&gt;DayNight&lt;/span&gt;&lt;/font&gt;&lt;br&gt;&lt;/font&gt;&lt;/div&gt;&lt;font style=&quot;font-size: 20px;&quot;&gt;&lt;font style=&quot;font-size: 20px;&quot;&gt;&lt;div style=&quot;text-align: left;&quot;&gt;&lt;div&gt;&lt;br&gt;&lt;/div&gt;&lt;/div&gt;&lt;/font&gt;&lt;/font&gt;" style="text;html=1;align=center;verticalAlign=middle;resizable=0;points=[];autosize=1;strokeColor=none;fillColor=none;" vertex="1" parent="vb8EqII04e8IpAxQcezI-24">
          <mxGeometry x="65" y="10" width="150" height="240" as="geometry" />
        </mxCell>
      </root>
    </mxGraphModel>
  </diagram>
</mxfile>
